<svg xmlns="http://www.w3.org/2000/svg" width="430" height="430" style="width:100%;height:100%;transform:translate3d(0,0,0);content-visibility:visible" viewBox="0 0 430 430"><defs><clipPath id="e"><path d="M0 0h430v430H0z"/></clipPath><clipPath id="h"><path d="M0 0h430v430H0z"/></clipPath><clipPath id="f"><path d="M0 0h430v430H0z"/></clipPath><filter id="a" width="100%" height="100%" x="0%" y="0%" filterUnits="objectBoundingBox"><feComponentTransfer in="SourceGraphic"><feFuncA tableValues="1.0 0.0" type="table"/></feComponentTransfer></filter><filter id="c" width="100%" height="100%" x="0%" y="0%" filterUnits="objectBoundingBox"><feComponentTransfer in="SourceGraphic"><feFuncA tableValues="1.0 0.0" type="table"/></feComponentTransfer></filter><path id="b" class="tertiary" style="display:none"/><path id="d" fill="#B26836" d="M137.4-8.252c-4.18-3.19-8.81-5.46-13.62-5.63 0 0 10.35 17.53 5.52 33.58-.48 1.3-.99 2.6-1.5 3.88 0 .01-.01.02-.02.04-7.24 18.14-16.82 33.98-27.47 47.72-5.15-7.24-12.1-14.26-20.19-15.38 0 0 10.06 21.8.11 37.88l-.01.01C41.96 131.348 0 146.778 0 146.778s-41.96-15.43-80.22-52.93l-.01-.01c-9.95-16.08.11-37.88.11-37.88-8.09 1.12-15.05 8.14-20.19 15.38-10.66-13.74-20.26-29.63-27.5-47.76a27 27 0 0 1-1.49-3.88c-4.83-16.05 5.51-33.58 5.51-33.58-4.81.17-9.43 2.44-13.61 5.63-2.76-13.19-4.3-27.33-4.3-42.49 0-41.25 24.89-75.88 62.65-89.65 8.1 8.25 17.54 14.68 27.93 16.13 0 0-4.08-8.83-6.68-21.42 17.67-2.49 37.23-.84 57.8 6.02 20.57-6.86 40.13-8.51 57.79-6.02-2.59 12.59-6.67 21.42-6.67 21.42 10.39-1.45 19.83-7.88 27.92-16.13 37.77 13.77 62.66 48.4 62.66 89.65 0 15.16-1.54 29.3-4.3 42.49" class="tertiary" style="display:block" transform="translate(252.077 209)scale(1.15526)"/><mask id="i" mask-type="alpha"><g filter="url(#a)"><path fill="#fff" d="M0 0h430v430H0z" opacity="0"/><use xmlns:ns1="http://www.w3.org/1999/xlink" ns1:href="#b"/></g></mask><mask id="g" mask-type="alpha"><g filter="url(#c)"><path fill="#fff" d="M0 0h430v430H0z" opacity="0"/><use xmlns:ns2="http://www.w3.org/1999/xlink" ns2:href="#d"/></g></mask></defs><g clip-path="url(#e)"><g clip-path="url(#f)" style="display:block"><path fill="#B26836" d="M137.4-8.252c-4.18-3.19-8.81-5.46-13.62-5.63 0 0 10.35 17.53 5.52 33.58-.48 1.3-.99 2.6-1.5 3.88 0 .01-.01.02-.02.04-7.24 18.14-16.82 33.98-27.47 47.72-5.15-7.24-12.1-14.26-20.19-15.38 0 0 10.06 21.8.11 37.88l-.01.01C41.96 131.348 0 146.778 0 146.778s-41.96-15.43-80.22-52.93l-.01-.01c-9.95-16.08.11-37.88.11-37.88-8.09 1.12-15.05 8.14-20.19 15.38-10.66-13.74-20.26-29.63-27.5-47.76a27 27 0 0 1-1.49-3.88c-4.83-16.05 5.51-33.58 5.51-33.58-4.81.17-9.43 2.44-13.61 5.63-2.76-13.19-4.3-27.33-4.3-42.49 0-41.25 24.89-75.88 62.65-89.65 8.1 8.25 17.54 14.68 27.93 16.13 0 0-4.08-8.83-6.68-21.42 17.67-2.49 37.23-.84 57.8 6.02 20.57-6.86 40.13-8.51 57.79-6.02-2.59 12.59-6.67 21.42-6.67 21.42 10.39-1.45 19.83-7.88 27.92-16.13 37.77 13.77 62.66 48.4 62.66 89.65 0 15.16-1.54 29.3-4.3 42.49" class="tertiary" style="display:block" transform="translate(215.077 228)"/><g mask="url(#g)" opacity=".5" style="mix-blend-mode:multiply;display:block"><path fill="#B26836" d="M352.477 219.748c-4.18-3.19-8.81-5.46-13.62-5.63 0 0 10.35 17.53 5.52 33.58-.48 1.3-.99 2.6-1.5 3.88 0 .01-.01.02-.02.04-7.24 18.14-16.82 33.98-27.47 47.72-5.15-7.24-12.1-14.26-20.19-15.38 0 0 10.06 21.8.11 37.88l-.01.01c-38.26 37.5-80.22 52.93-80.22 52.93s-41.96-15.43-80.22-52.93l-.01-.01c-9.95-16.08.11-37.88.11-37.88-8.09 1.12-15.05 8.14-20.19 15.38-10.66-13.74-20.26-29.63-27.5-47.76a27 27 0 0 1-1.49-3.88c-4.83-16.05 5.51-33.58 5.51-33.58-4.81.17-9.43 2.44-13.61 5.63-2.76-13.19-4.3-27.33-4.3-42.49 0-41.25 24.89-75.88 62.65-89.65 8.1 8.25 17.54 14.68 27.93 16.13 0 0-4.08-8.83-6.68-21.42 17.67-2.49 37.23-.84 57.8 6.02 20.57-6.86 40.13-8.51 57.79-6.02-2.59 12.59-6.67 21.42-6.67 21.42 10.39-1.45 19.83-7.88 27.92-16.13 37.77 13.77 62.66 48.4 62.66 89.65 0 15.16-1.54 29.3-4.3 42.49" class="tertiary" opacity="1"/></g><path fill="none" stroke="#121331" stroke-linecap="round" stroke-linejoin="round" stroke-width="7" d="M-188.385-148.589c17.661-2.488 37.225-.84 57.794 6.02 20.569-6.86 40.133-8.508 57.794-6.02m21.252 5.289c37.762 13.768 62.654 48.398 62.654 89.653 0 15.163-1.542 29.301-4.303 42.484M-209.638-143.3c-37.762 13.768-62.653 48.398-62.653 89.653 0 15.163 1.542 29.301 4.303 42.484M-1.293 16.793a168 168 0 0 1-1.493 3.874c0 .02-.009.028-.019.048-7.24 18.139-16.823 33.976-27.478 47.715m-228.113-47.763c7.24 18.139 16.842 34.024 27.497 47.763m180.535 22.501-.01.01c-38.26 37.499-80.217 52.925-80.217 52.925s-41.957-15.426-80.217-52.925l-.01-.01m.107.176a1.4 1.4 0 0 1-.097-.166l-.01-.01c-9.953-16.081.107-37.879.107-37.879-8.089 1.122-15.046 8.138-20.188 15.378m180.428 22.677c.039-.059.068-.107.097-.166l.01-.01c9.953-16.081-.107-37.879-.107-37.879 8.089 1.122 15.046 8.138 20.188 15.378m-158.102-217.019c2.596 12.587 6.674 21.418 6.674 21.418-10.392-1.444-19.828-7.874-27.927-16.129m136.841-5.289c-2.596 12.587-6.674 21.418-6.674 21.418 10.392-1.444 19.827-7.874 27.926-16.129M-258.396 20.667a26 26 0 0 1-1.493-3.874c-4.83-16.051 5.513-33.586 5.513-33.586-4.811.176-9.436 2.439-13.612 5.63M-1.293 16.793C3.537.742-6.806-16.793-6.806-16.793c4.811.176 9.436 2.439 13.612 5.63" class="primary" style="display:block" transform="translate(345.591 231.254)"/><g fill="#FFC738" style="display:block"><path d="M186.293 135.851s-52.28-21.003-75.451-.012c10.16 28.084 40.44 35.455 40.44 35.455m92.733-35.443s52.28-21.003 75.451-.012c-10.16 28.084-40.44 35.455-40.44 35.455" class="secondary"/><path fill-opacity=".5" d="M-61.885-56.063s-52.28-21.003-75.451-.012c10.16 28.084 40.44 35.455 40.44 35.455m92.733-35.443s52.28-21.003 75.451-.012c-10.16 28.084-40.44 35.455-40.44 35.455" class="secondary" style="mix-blend-mode:multiply" transform="translate(248.178 191.914)"/><path d="M224.926 307.141h-19.82a22.58 22.58 0 0 1-21.366-15.278l-6.634-19.417a236 236 0 0 0-14.503-33.643l-10.631-20.187a52.24 52.24 0 0 1 3.861-54.914l13.667-18.939a21.52 21.52 0 0 1 17.447-8.924h56.107c6.911 0 13.402 3.32 17.447 8.924l13.695 18.977a52.24 52.24 0 0 1 3.893 54.854l-10.78 20.534a236 236 0 0 0-14.215 32.952l-6.815 19.823a22.58 22.58 0 0 1-21.353 15.238" class="secondary"/></g><path class="quaternary" style="display:none"/><g fill="none" stroke="#121331" stroke-linecap="round" stroke-linejoin="round" stroke-width="7" style="display:block"><path d="m242.323 192.302 11.709-2.179m-29.106 117.018h-19.82a22.58 22.58 0 0 1-21.366-15.278l-6.634-19.417a236 236 0 0 0-14.503-33.643l-10.631-20.187a52.24 52.24 0 0 1 3.861-54.914l13.667-18.939a21.52 21.52 0 0 1 17.447-8.924h56.107c6.911 0 13.402 3.32 17.447 8.924l13.695 18.977a52.24 52.24 0 0 1 3.893 54.854l-10.78 20.534a236 236 0 0 0-14.215 32.952l-6.815 19.823a22.58 22.58 0 0 1-21.353 15.238M215 250.634v19.25m38.592.77-9.446 2.986a35.02 35.02 0 0 1-24.433-1.239L215 270.362h-.009m-38.504.312 9.377 2.966a35.02 35.02 0 0 0 24.433-1.239l4.703-2.039h.01m-27.333-78.06-11.709-2.179m10.325-54.272s-52.28-21.003-75.451-.012c10.16 28.084 40.44 35.455 40.44 35.455m92.733-35.443s52.28-21.003 75.451-.012c-10.16 28.084-40.44 35.455-40.44 35.455" class="primary"/><path d="m253.592 270.654-9.446 2.986a35.02 35.02 0 0 1-24.433-1.239L215 270.362h-.009m-38.504.312 9.377 2.966a35.02 35.02 0 0 0 24.433-1.239l4.703-2.039h.01m-20.473-40.518c0 5.815 20.471 21.28 20.471 21.28s20.454-15.465 20.454-21.28m-40.925 0 7.443-18.051m33.482 18.051-7.442-18.051" class="primary"/></g></g><g clip-path="url(#h)" style="display:none"><g style="display:none"><path fill="none" class="primary"/><path class="tertiary"/></g><g mask="url(#i)" style="mix-blend-mode:multiply;display:none"><path class="tertiary"/></g><g fill="none" style="display:none"><path class="quinary"/><path class="primary"/></g><g style="display:none"><path fill="none" class="primary"/><path class="secondary"/><path fill="none" class="primary"/><path class="secondary"/><path fill="none" class="primary"/><path class="secondary"/></g><g fill="none" style="display:none"><path class="primary"/><path class="primary"/><path class="primary"/></g><g fill="none" style="display:none"><path class="primary"/><path class="primary"/></g></g></g></svg>